<mxfile host="app.diagrams.net" modified="2024-01-08T11:58:46.639Z" agent="Mozilla/5.0 (Windows NT 10.0; Win64; x64; rv:121.0) Gecko/20100101 Firefox/121.0" etag="BYul9GVs7AP__k9NLR7h" version="22.1.16" type="github">
  <diagram id="6a731a19-8d31-9384-78a2-239565b7b9f0" name="Page-1">
    <mxGraphModel dx="2962" dy="943" grid="1" gridSize="10" guides="1" tooltips="1" connect="1" arrows="1" fold="1" page="1" pageScale="1" pageWidth="1169" pageHeight="827" background="none" math="0" shadow="0">
      <root>
        <mxCell id="0" />
        <mxCell id="1" parent="0" />
        <mxCell id="7GzyAjLSn7zoueKpB1x2-1549" value="" style="edgeStyle=orthogonalEdgeStyle;rounded=0;orthogonalLoop=1;jettySize=auto;html=1;fontSize=12;fontFamily=Lucida Console;fillColor=#e1d5e7;strokeColor=#9673a6;" parent="1" source="7GzyAjLSn7zoueKpB1x2-1543" target="7GzyAjLSn7zoueKpB1x2-1548" edge="1">
          <mxGeometry relative="1" as="geometry" />
        </mxCell>
        <mxCell id="7GzyAjLSn7zoueKpB1x2-1543" value="RFP-1303" style="ellipse;whiteSpace=wrap;html=1;aspect=fixed;fontFamily=Lucida Console;fillColor=#e1d5e7;strokeColor=#9673a6;" parent="1" vertex="1">
          <mxGeometry x="640" y="430" width="80" height="80" as="geometry" />
        </mxCell>
        <mxCell id="7GzyAjLSn7zoueKpB1x2-1551" value="" style="edgeStyle=orthogonalEdgeStyle;rounded=0;orthogonalLoop=1;jettySize=auto;html=1;fillColor=#f8cecc;strokeColor=#b85450;" parent="1" source="7GzyAjLSn7zoueKpB1x2-1548" target="7GzyAjLSn7zoueKpB1x2-1550" edge="1">
          <mxGeometry relative="1" as="geometry" />
        </mxCell>
        <mxCell id="7GzyAjLSn7zoueKpB1x2-1548" value="In the NF-e Entrada Mercadoria" style="whiteSpace=wrap;html=1;fontFamily=Lucida Console;fillColor=#f8cecc;strokeColor=#b85450;" parent="1" vertex="1">
          <mxGeometry x="460" y="440" width="120" height="60" as="geometry" />
        </mxCell>
        <mxCell id="7GzyAjLSn7zoueKpB1x2-1553" value="" style="edgeStyle=orthogonalEdgeStyle;rounded=0;orthogonalLoop=1;jettySize=auto;html=1;fillColor=#f8cecc;strokeColor=#b85450;" parent="1" source="7GzyAjLSn7zoueKpB1x2-1550" target="7GzyAjLSn7zoueKpB1x2-1552" edge="1">
          <mxGeometry relative="1" as="geometry" />
        </mxCell>
        <mxCell id="7GzyAjLSn7zoueKpB1x2-1550" value="Select multiple input notes on screen" style="whiteSpace=wrap;html=1;fontFamily=Lucida Console;fillColor=#f8cecc;strokeColor=#b85450;" parent="1" vertex="1">
          <mxGeometry x="460" y="300" width="120" height="60" as="geometry" />
        </mxCell>
        <mxCell id="7GzyAjLSn7zoueKpB1x2-1555" value="" style="edgeStyle=orthogonalEdgeStyle;rounded=0;orthogonalLoop=1;jettySize=auto;html=1;fillColor=#f8cecc;strokeColor=#b85450;" parent="1" source="7GzyAjLSn7zoueKpB1x2-1552" target="7GzyAjLSn7zoueKpB1x2-1554" edge="1">
          <mxGeometry relative="1" as="geometry" />
        </mxCell>
        <mxCell id="7GzyAjLSn7zoueKpB1x2-1552" value="Have a button to print labels based on multiple selection" style="whiteSpace=wrap;html=1;fontFamily=Lucida Console;fillColor=#f8cecc;strokeColor=#b85450;" parent="1" vertex="1">
          <mxGeometry x="260" y="280" width="120" height="100" as="geometry" />
        </mxCell>
        <mxCell id="7GzyAjLSn7zoueKpB1x2-1557" value="" style="edgeStyle=orthogonalEdgeStyle;rounded=0;orthogonalLoop=1;jettySize=auto;html=1;fillColor=#f8cecc;strokeColor=#b85450;" parent="1" source="7GzyAjLSn7zoueKpB1x2-1554" target="7GzyAjLSn7zoueKpB1x2-1556" edge="1">
          <mxGeometry relative="1" as="geometry" />
        </mxCell>
        <mxCell id="7GzyAjLSn7zoueKpB1x2-1554" value="Create a button to print the labels" style="whiteSpace=wrap;html=1;fillColor=#f8cecc;strokeColor=#b85450;fontFamily=Lucida Console;" parent="1" vertex="1">
          <mxGeometry x="60" y="300" width="120" height="60" as="geometry" />
        </mxCell>
        <mxCell id="0DlAYWkzL25evRpDwO27-2" value="" style="edgeStyle=orthogonalEdgeStyle;rounded=0;orthogonalLoop=1;jettySize=auto;html=1;fillColor=#f8cecc;strokeColor=#b85450;" edge="1" parent="1" source="7GzyAjLSn7zoueKpB1x2-1556" target="0DlAYWkzL25evRpDwO27-1">
          <mxGeometry relative="1" as="geometry">
            <Array as="points">
              <mxPoint x="250" y="170" />
              <mxPoint x="250" y="170" />
            </Array>
          </mxGeometry>
        </mxCell>
        <mxCell id="0DlAYWkzL25evRpDwO27-6" value="" style="edgeStyle=orthogonalEdgeStyle;rounded=0;orthogonalLoop=1;jettySize=auto;html=1;fillColor=#f8cecc;strokeColor=#b85450;" edge="1" parent="1" source="7GzyAjLSn7zoueKpB1x2-1556" target="0DlAYWkzL25evRpDwO27-5">
          <mxGeometry relative="1" as="geometry" />
        </mxCell>
        <mxCell id="7GzyAjLSn7zoueKpB1x2-1556" value="By clicking on the button, the screen opens directly to print labels with the selected banknote products and their quantities" style="whiteSpace=wrap;html=1;labelBackgroundColor=none;labelBorderColor=none;fontFamily=Lucida Console;fillColor=#f8cecc;strokeColor=#b85450;" parent="1" vertex="1">
          <mxGeometry x="30" y="120" width="180" height="100" as="geometry" />
        </mxCell>
        <mxCell id="0DlAYWkzL25evRpDwO27-1" value="At this point, the customer selects the products and quantities and configures them for printing normally." style="whiteSpace=wrap;html=1;fontFamily=Lucida Console;fillColor=#f8cecc;strokeColor=#b85450;labelBackgroundColor=none;labelBorderColor=none;" vertex="1" parent="1">
          <mxGeometry x="320" y="120" width="150" height="100" as="geometry" />
        </mxCell>
        <mxCell id="0DlAYWkzL25evRpDwO27-5" value="&lt;div style=&quot;&quot;&gt;&lt;font style=&quot;font-size: 12px;&quot;&gt;&lt;br&gt;&lt;/font&gt;&lt;div align=&quot;center&quot;&gt;&lt;pre dir=&quot;ltr&quot; data-ved=&quot;2ahUKEwif5siBtcaDAxVjqpUCHa7nDYsQ3ewLegQIBRAP&quot; style=&quot;&quot; id=&quot;tw-target-text&quot; data-placeholder=&quot;Tradução&quot; class=&quot;tw-data-text tw-text-large tw-ta&quot;&gt;&lt;font style=&quot;font-size: 12px;&quot;&gt;&lt;span lang=&quot;en&quot; class=&quot;Y2IQFc&quot;&gt;Handle label printing&lt;br&gt;for multi-stores&lt;br&gt;when selecting input&lt;br&gt;from different companies&lt;br&gt;give a warning&lt;br&gt;that can only&lt;br&gt;print labels &lt;br&gt;from the same company&lt;/span&gt;&lt;/font&gt;&lt;/pre&gt;&lt;font style=&quot;font-size: 12px;&quot;&gt;&lt;br&gt;&lt;/font&gt;&lt;/div&gt;&lt;font style=&quot;font-size: 12px;&quot;&gt;&lt;br&gt;&lt;/font&gt;&lt;/div&gt;" style="whiteSpace=wrap;html=1;fontFamily=Lucida Console;fillColor=#f8cecc;strokeColor=#b85450;labelBackgroundColor=none;labelBorderColor=none;align=center;" vertex="1" parent="1">
          <mxGeometry x="-200" y="100" width="170" height="140" as="geometry" />
        </mxCell>
      </root>
    </mxGraphModel>
  </diagram>
</mxfile>
